<?xml version="1.0" encoding="UTF-8"?>
<svg version="1.1" xmlns="http://www.w3.org/2000/svg" width="560" height="560">
<path d="M0 0 C6.65173598 6.16353518 12.38833271 12.88809002 18 20 C18.79277344 20.97582031 19.58554687 21.95164062 20.40234375 22.95703125 C54.52686691 65.8148447 69.47111051 121.50046945 64.05029297 175.74902344 C57.85496434 230.26393762 31.93036779 281.24682694 -10.375 316.625 C-24.87779178 328.13581182 -40.0170566 337.74719867 -56.6875 345.8125 C-57.6252124 346.26874756 -58.5629248 346.72499512 -59.52905273 347.19506836 C-79.19779564 356.51491553 -79.19779564 356.51491553 -88 354 C-91.20319389 351.61813788 -92.30393358 349.85091601 -93 346 C-93.07236481 343.94549255 -93.08702433 341.88868095 -93.06591797 339.83300781 C-93.05615936 338.58360413 -93.04640076 337.33420044 -93.03634644 336.04693604 C-93.02530191 335.04775524 -93.02530191 335.04775524 -93.01403427 334.02838898 C-92.99187418 331.92336242 -92.9778794 329.81842802 -92.96633911 327.71331787 C-92.93291237 321.72818454 -92.89192309 315.7431988 -92.82861328 309.75830078 C-92.79040191 306.09024199 -92.76776832 302.42234152 -92.75430679 298.75411224 C-92.74637995 297.37174851 -92.73296027 295.98940257 -92.71337509 294.60715485 C-92.49713281 279.04959992 -94.29407881 264.3592583 -103.13671875 251.24609375 C-103.9424231 250.04811157 -103.9424231 250.04811157 -104.7644043 248.82592773 C-105.17215088 248.22337158 -105.57989746 247.62081543 -106 247 C-104.95996826 246.81993408 -104.95996826 246.81993408 -103.89892578 246.63623047 C-73.09731064 241.22341564 -45.9074724 233.72345848 -26.9609375 207.08203125 C-22.05831876 199.37652092 -18.8884366 191.19841191 -16.25 182.5 C-16.05116211 181.84878174 -15.85232422 181.19756348 -15.64746094 180.52661133 C-12.33776405 168.92706045 -11.58677197 157.18968468 -11.625 145.1875 C-11.62681274 144.13042847 -11.62681274 144.13042847 -11.62866211 143.05200195 C-11.71832369 123.77913514 -15.79357122 106.33715103 -28.6875 91.4375 C-31.18030785 88.17990838 -32.04014295 86.79819131 -31.83203125 82.66015625 C-31.25983017 80.1430088 -30.63420892 77.63760077 -29.96484375 75.14453125 C-26.42727597 61.44593466 -29.54312637 47.35547161 -33 34 C-33.34786343 32.33630534 -33.68874811 30.67093122 -34 29 C-53.17150409 30.37617232 -72.37677567 36.59889552 -87.55859375 48.83984375 C-90.21744048 50.76639838 -90.77392171 51.00436866 -94.234375 50.9375 C-95.47703125 50.628125 -96.7196875 50.31875 -98 50 C-99.77410532 49.67668814 -101.55038673 49.36519933 -103.328125 49.0625 C-106.28604031 48.53331355 -109.2433092 48.00122295 -112.19921875 47.4609375 C-138.37239808 42.80329337 -166.83253919 43.30129736 -192.51171875 50.546875 C-198.01956279 51.54987329 -201.40685844 49.33448591 -205.9375 46.375 C-219.04886791 38.04733134 -233.89249288 29.74569269 -249.8125 29.9375 C-250.78832031 29.94652344 -251.76414062 29.95554687 -252.76953125 29.96484375 C-253.50558594 29.97644531 -254.24164063 29.98804688 -255 30 C-260.42071222 46.07793772 -262.67994628 60.81252528 -258.97973633 77.4309082 C-258.15559631 81.28119481 -257.68494297 84.24988522 -259 88 C-260.6015625 90.3671875 -260.6015625 90.3671875 -262.625 92.875 C-278.90554252 114.72827302 -280.60293493 141.27821879 -276.8125 167.5625 C-272.98679288 190.87988419 -263.26578048 212.39694831 -244 227 C-225.96335465 239.26696846 -205.25334032 243.6913298 -184 247 C-184.45890625 247.66644531 -184.9178125 248.33289063 -185.390625 249.01953125 C-190.36222725 256.48737917 -194.43426821 263.90841393 -195.4375 272.9375 C-197 276 -197 276 -199.80078125 277.27734375 C-214.07867605 281.82104527 -226.94358222 282.76337934 -240.625 275.875 C-248.91479375 270.90112375 -254.52702903 263.79879541 -259.39453125 255.578125 C-265.18452754 246.28032073 -274.36025392 239.75052259 -285 237 C-290.2241142 236.40532418 -294.36322349 236.35343807 -299 239 C-297.34497828 244.79257603 -293.25799572 247.34091253 -288.62890625 250.7421875 C-279.15529668 257.92309703 -274.45528527 265.83436689 -269.625 276.5 C-264.11517234 288.58531806 -256.60802549 298.13941095 -243.9765625 303.21484375 C-235.83111689 306.04060945 -228.45279684 307.17289676 -219.875 307.125 C-219.04057373 307.12306641 -218.20614746 307.12113281 -217.34643555 307.11914062 C-210.85976364 307.07407256 -204.45136215 306.68255512 -198 306 C-196.90909514 327.88482813 -196.90909514 327.88482813 -196.8125 338.625 C-196.79832031 339.93726563 -196.78414062 341.24953125 -196.76953125 342.6015625 C-197.03987205 346.58794375 -197.97805532 349.41030828 -200.125 352.75 C-203.13410971 354.75607314 -206.4650406 354.92890584 -210 355 C-212.74275459 354.39049898 -215.03639773 353.74240302 -217.625 352.75 C-218.3459082 352.481875 -219.06681641 352.21375 -219.80957031 351.9375 C-242.03644069 343.35903797 -263.20264351 330.88849176 -281 315 C-281.48758789 314.5659082 -281.97517578 314.13181641 -282.47753906 313.68457031 C-286.03357914 310.50659579 -289.52925662 307.27088315 -293 304 C-294.09828125 302.96552734 -294.09828125 302.96552734 -295.21875 301.91015625 C-333.52468522 264.74427862 -354.16469561 209.50157109 -355.16625977 156.80981445 C-355.67353907 103.13733139 -336.64388437 50.90975686 -300.15234375 11.33984375 C-298.03283386 9.03569416 -295.98564658 6.68004566 -293.9375 4.3125 C-290.22709386 0.15278686 -286.30104964 -3.46203982 -282 -7 C-281.50177734 -7.42120117 -281.00355469 -7.84240234 -280.49023438 -8.27636719 C-265.70562389 -20.75902598 -249.58367106 -30.93236079 -232 -39 C-230.81921875 -39.54269531 -229.6384375 -40.08539063 -228.421875 -40.64453125 C-208.96071725 -49.26242061 -188.17084286 -54.732637 -167 -57 C-165.97519531 -57.11085938 -164.95039063 -57.22171875 -163.89453125 -57.3359375 C-102.7617535 -62.95559657 -44.99506062 -40.78499647 0 0 Z " fill="#E7E9E9" transform="translate(425,132)"/>
</svg>
